<svg id="Capa_1" enable-background="new 0 0 512 512" height="80" viewBox="0 0 512 512" width="128" xmlns="http://www.w3.org/2000/svg"><g><path d="m154.706 102.056c-1.407-7.017-7.559-12.056-14.707-12.056h-86.998c-8.291 0-15 6.709-15 15s6.709 15 15 15h74.707l42.026 212.117c-23.291 1.685-41.733 21.167-41.733 44.883 0 24.814 20.186 45 45 45h270c8.291 0 15-6.709 15-15s-6.709-15-15-15h-270c-8.276 0-15-6.724-15-15s6.724-15 15-15c6.738 0 266.743 0 256 0 7.148 0 13.301-5.054 14.707-12.056l30-152c.879-4.409-.264-8.979-3.105-12.451-2.856-3.472-7.104-5.493-11.602-5.493h-288.706zm93.295 229.944h-47.704l-9-47h56.704zm120-122h72.704l-8.998 45h-63.706zm0 75h57.708l-8.998 47h-48.71zm-90-75h60v45h-60zm0 75h60v47h-60zm-30-75v45h-62.704l-9.001-45z"/><circle cx="203.001" cy="467" r="45"/><circle cx="383.001" cy="467" r="45"/><path d="m432.792 80.522c6.357-5.303 7.222-14.766 1.904-21.123-31.509-37.749-77.695-59.399-126.695-59.399s-95.186 21.65-126.694 59.399c-5.317 6.357-4.453 15.82 1.904 21.123 6.343 5.332 15.835 4.438 21.123-1.904 25.796-30.893 63.589-48.618 103.667-48.618s77.871 17.725 103.667 48.618c5.312 6.389 14.81 7.193 21.124 1.904z"/><path d="m386.722 118.916c6.357-5.303 7.207-14.766 1.904-21.123-20.053-24.023-49.438-37.793-80.625-37.793s-60.571 13.77-80.626 37.793c-5.302 6.357-4.453 15.82 1.905 21.123 6.357 5.332 15.864 4.453 21.123-1.904 28.682-34.336 86.514-34.336 115.195 0 5.313 6.388 14.811 7.192 21.124 1.904z"/><path d="m273.431 136.201c-5.303 6.372-4.438 15.835 1.934 21.123 6.401 5.303 15.835 4.409 21.123-1.934 5.713-6.855 17.314-6.855 23.027 0 5.281 6.352 14.713 7.242 21.123 1.934 6.372-5.288 7.236-14.751 1.934-21.123-17.11-20.596-52.031-20.596-69.141 0z"/></g></svg>